<svg width="21" height="21" viewBox="0 0 21 21" fill="none" xmlns="http://www.w3.org/2000/svg">
<path d="M21 1.15781V19.8375C21 20.4797 20.4797 20.9953 19.8422 20.9953H14.4891V12.8672H17.2172L17.625 9.69844H14.4844V7.67344C14.4844 6.75469 14.7375 6.13125 16.0547 6.13125H17.7328V3.29531C17.4422 3.25781 16.4484 3.16875 15.2859 3.16875C12.8672 3.16875 11.2078 4.64531 11.2078 7.35938V9.69844H8.47031V12.8672H11.2078V21H1.15781C0.520313 21 0 20.4797 0 19.8422V1.15781C0 0.520313 0.520313 0 1.15781 0H19.8375C20.4797 0 21 0.520313 21 1.15781Z" fill="#D9D9D9"/>
</svg>
