<svg width="23" height="21" viewBox="0 0 23 21" fill="none" xmlns="http://www.w3.org/2000/svg">
<path d="M7.69294 16.9092C7.69294 16.996 7.58629 17.0655 7.45181 17.0655C7.29879 17.0785 7.19214 17.009 7.19214 16.9092C7.19214 16.8223 7.29879 16.7528 7.43327 16.7528C7.57238 16.7398 7.69294 16.8093 7.69294 16.9092ZM6.25081 16.7138C6.21835 16.8006 6.31109 16.9005 6.4502 16.9265C6.57077 16.97 6.70988 16.9265 6.7377 16.8397C6.76552 16.7528 6.67742 16.653 6.53831 16.6139C6.41774 16.5835 6.28327 16.6269 6.25081 16.7138ZM8.3004 16.6399C8.16593 16.6703 8.07318 16.7528 8.0871 16.8527C8.10101 16.9396 8.22157 16.996 8.36069 16.9656C8.49516 16.9352 8.5879 16.8527 8.57399 16.7659C8.56008 16.6834 8.43488 16.6269 8.3004 16.6399ZM11.3516 0C4.91996 0 0 4.57251 0 10.5954C0 15.4111 3.23669 19.532 7.85988 20.9823C8.45343 21.0822 8.6621 20.7391 8.6621 20.4569C8.6621 20.1877 8.64819 18.7026 8.64819 17.7907C8.64819 17.7907 5.40222 18.442 4.72056 16.4966C4.72056 16.4966 4.19194 15.233 3.43145 14.9073C3.43145 14.9073 2.36956 14.2256 3.50565 14.2386C3.50565 14.2386 4.66028 14.3255 5.29556 15.3589C6.31109 17.0351 8.0129 16.5531 8.67601 16.2665C8.78266 15.5717 9.08407 15.0897 9.41794 14.8031C6.82581 14.5339 4.21048 14.1822 4.21048 10.0048C4.21048 8.81066 4.5629 8.21141 5.30484 7.44716C5.18427 7.1649 4.79012 6.00115 5.4254 4.49869C6.39456 4.21644 8.625 5.67113 8.625 5.67113C9.55242 5.42796 10.5494 5.30203 11.5371 5.30203C12.5248 5.30203 13.5218 5.42796 14.4492 5.67113C14.4492 5.67113 16.6796 4.21209 17.6488 4.49869C18.2841 6.00549 17.8899 7.1649 17.7694 7.44716C18.5113 8.21576 18.9657 8.815 18.9657 10.0048C18.9657 14.1952 16.2345 14.5296 13.6423 14.8031C14.069 15.1462 14.4306 15.7975 14.4306 16.818C14.4306 18.2814 14.4167 20.0921 14.4167 20.4482C14.4167 20.7305 14.63 21.0735 15.219 20.9736C19.856 19.532 23 15.4111 23 10.5954C23 4.57251 17.7833 0 11.3516 0ZM4.50726 14.9768C4.44698 15.0202 4.46089 15.1201 4.53972 15.2026C4.61391 15.2721 4.72056 15.3025 4.78085 15.246C4.84113 15.2026 4.82722 15.1027 4.74839 15.0202C4.67419 14.9508 4.56754 14.9204 4.50726 14.9768ZM4.00645 14.6251C3.97399 14.6815 4.02036 14.751 4.1131 14.7944C4.1873 14.8379 4.28004 14.8248 4.3125 14.764C4.34496 14.7076 4.29859 14.6381 4.20585 14.5947C4.1131 14.5686 4.03891 14.5817 4.00645 14.6251ZM5.50887 16.171C5.43468 16.2274 5.4625 16.3577 5.56915 16.4402C5.67581 16.5401 5.81028 16.5531 5.87056 16.4836C5.93085 16.4272 5.90302 16.2969 5.81028 16.2144C5.70827 16.1145 5.56915 16.1015 5.50887 16.171ZM4.98024 15.5326C4.90605 15.5761 4.90605 15.689 4.98024 15.7888C5.05444 15.8887 5.17964 15.9321 5.23992 15.8887C5.31411 15.8323 5.31411 15.7194 5.23992 15.6195C5.175 15.5196 5.05444 15.4762 4.98024 15.5326Z" fill="#D9D9D9"/>
</svg>
