<svg width="66" height="66" viewBox="0 0 66 66" fill="none" xmlns="http://www.w3.org/2000/svg">
<g filter="url(#filter0_d_138_98)">
<rect x="10" y="10" width="44" height="44" rx="22" fill="#303134"/>
</g>
<path d="M28.6709 40.5207C28.6709 40.7913 28.7466 41.0552 28.8911 41.2808L29.6052 42.3847C29.824 42.7231 30.3207 42.9983 30.7152 42.9983H33.2848C33.6781 42.9983 34.1748 42.7232 34.3936 42.3847L35.1052 41.2813C35.2277 41.0906 35.3281 40.7497 35.3281 40.5207L35.3334 38.8363H28.6667L28.6709 40.5207ZM31.9751 21.0006C27.7267 21.014 24.6667 24.5651 24.6667 28.5238C24.6667 30.4308 25.3517 32.1693 26.4817 33.4996C27.1705 34.3091 28.2459 36.0017 28.6576 37.4291C28.6589 37.4398 28.6615 37.4513 28.6628 37.4627H35.3378C35.3391 37.4513 35.3417 37.4405 35.343 37.4291C35.7545 36.0017 36.8301 34.3091 37.5188 33.4996C38.6501 32.2063 39.3334 30.4703 39.3334 28.5238C39.3334 24.3778 36.0376 20.9878 31.9751 21.0006Z" fill="#F4D04F"/>
<defs>
<filter id="filter0_d_138_98" x="0" y="0" width="66" height="66" filterUnits="userSpaceOnUse" color-interpolation-filters="sRGB">
<feFlood flood-opacity="0" result="BackgroundImageFix"/>
<feColorMatrix in="SourceAlpha" type="matrix" values="0 0 0 0 0 0 0 0 0 0 0 0 0 0 0 0 0 0 127 0" result="hardAlpha"/>
<feMorphology radius="1" operator="dilate" in="SourceAlpha" result="effect1_dropShadow_138_98"/>
<feOffset dx="1" dy="1"/>
<feGaussianBlur stdDeviation="5"/>
<feComposite in2="hardAlpha" operator="out"/>
<feColorMatrix type="matrix" values="0 0 0 0 0 0 0 0 0 0 0 0 0 0 0 0 0 0 0.1 0"/>
<feBlend mode="normal" in2="BackgroundImageFix" result="effect1_dropShadow_138_98"/>
<feBlend mode="normal" in="SourceGraphic" in2="effect1_dropShadow_138_98" result="shape"/>
</filter>
</defs>
</svg>
