<svg width="94" height="82" viewBox="0 0 94 82" fill="none" xmlns="http://www.w3.org/2000/svg">
<path d="M81 30.375V21.875C81 17.2 77.175 13.375 72.5 13.375H59.75C59.75 6.32 54.055 0.625 47 0.625C39.945 0.625 34.25 6.32 34.25 13.375H21.5C16.825 13.375 13 17.2 13 21.875V30.375C5.945 30.375 0.25 36.07 0.25 43.125C0.25 50.18 5.945 55.875 13 55.875V72.875C13 77.55 16.825 81.375 21.5 81.375H72.5C77.175 81.375 81 77.55 81 72.875V55.875C88.055 55.875 93.75 50.18 93.75 43.125C93.75 36.07 88.055 30.375 81 30.375ZM72.5 72.875H21.5V21.875H72.5V72.875ZM34.25 47.375C30.7225 47.375 27.875 44.5275 27.875 41C27.875 37.4725 30.7225 34.625 34.25 34.625C37.7775 34.625 40.625 37.4725 40.625 41C40.625 44.5275 37.7775 47.375 34.25 47.375ZM66.125 41C66.125 44.5275 63.2775 47.375 59.75 47.375C56.2225 47.375 53.375 44.5275 53.375 41C53.375 37.4725 56.2225 34.625 59.75 34.625C63.2775 34.625 66.125 37.4725 66.125 41ZM30 55.875H64V64.375H30V55.875Z" fill="black"/>
</svg>
