<svg width="25" height="21" viewBox="0 0 25 21" fill="none" xmlns="http://www.w3.org/2000/svg">
<path d="M22.4303 5.23357C22.4461 5.46325 22.4461 5.69298 22.4461 5.92265C22.4461 12.9281 17.2907 21 7.86805 21C4.96511 21 2.26842 20.1304 0 18.6211C0.412453 18.6703 0.808988 18.6867 1.23731 18.6867C3.63258 18.6867 5.83757 17.85 7.59837 16.4227C5.34582 16.3734 3.45812 14.8477 2.80773 12.7477C3.12501 12.7968 3.44225 12.8297 3.77541 12.8297C4.23542 12.8297 4.69548 12.764 5.12375 12.6492C2.77604 12.157 1.01519 10.0242 1.01519 7.44843V7.38283C1.69727 7.77658 2.49049 8.02267 3.33117 8.05544C1.95108 7.10386 1.04693 5.47966 1.04693 3.64215C1.04693 2.65779 1.30069 1.75545 1.74488 0.967944C4.26711 4.18357 8.05838 6.28353 12.3096 6.51326C12.2303 6.11951 12.1827 5.70939 12.1827 5.29923C12.1827 2.37888 14.467 3.69877e-08 17.3065 3.69877e-08C18.7817 3.69877e-08 20.1142 0.639842 21.0501 1.67344C22.2081 1.44376 23.3185 1.00077 24.302 0.393753C23.9213 1.62425 23.1123 2.65784 22.0495 3.31405C23.0806 3.19926 24.08 2.90388 25 2.49377C24.3021 3.54373 23.4296 4.47884 22.4303 5.23357Z" fill="#D9D9D9"/>
</svg>
